<svg xmlns="http://www.w3.org/2000/svg" viewBox="54 74 92 92">
  <circle cx="100" cy="120" r="46" fill="#2B63C5"/>
  <path transform="translate(100,120) scale(1.15) translate(-100,-120)" d="M 66.48 139.98 C 65.85 138.96 86.91 105.09 90.25 101.75 C 91.52 100.48 93.61 100.00 97.88 100.00 C 103.42 100.00 103.97 100.22 107.14 103.75 C 109.00 105.81 113.36 111.44 116.83 116.25 C 123.38 125.33 126.13 126.96 129.03 123.47 C 130.16 122.11 130.57 122.18 132.65 124.14 C 135.82 127.12 135.61 128.46 131.63 130.92 C 127.69 133.36 121.36 133.64 118.33 131.52 C 117.17 130.71 112.49 124.86 107.93 118.52 C 102.89 111.52 98.96 107.00 97.92 107.00 C 96.84 107.00 94.13 110.34 90.60 116.01 C 87.52 120.97 85.00 125.24 85.00 125.51 C 85.00 125.78 90.62 126.00 97.50 126.00 L 110.00 126.00 L 110.00 128.46 C 110.00 132.25 107.25 133.00 93.41 133.00 L 80.69 133.00 L 77.00 137.00 C 74.22 140.01 72.54 141.00 70.21 141.00 C 68.51 141.00 66.83 140.54 66.48 139.98Z" fill="#FFFFFF"/>
</svg>
